HIERARCHY
ROOT Hips
{
  OFFSET 13.6774 106.653 -34.4427
  CHANNELS 6 Xposition Yposition Zposition Zrotation Xrotation Yrotation
  JOINT ToSpine
  {
    OFFSET -2.69724 7.43032 -0.144315
    CHANNELS 3 Zrotation Xrotation Yrotation
    JOINT Spine
    {
      OFFSET -0.0310711 10.7595 1.96963
      CHANNELS 3 Zrotation Xrotation Yrotation
      JOINT Spine1
      {
        OFFSET 19.9056 3.91189 0.764692
        CHANNELS 3 Zrotation Xrotation Yrotation
        JOINT Neck
        {
          OFFSET 25.9749 7.03908 -0.130764
          CHANNELS 3 Zrotation Xrotation Yrotation
          JOINT Head
          {
            OFFSET 9.52751 0.295786 -0.907742
            CHANNELS 3 Zrotation Xrotation Yrotation
            End Site
            {
              OFFSET 16.4037 0.713936 2.7358
            }
          }
        }
        JOINT LeftShoulder
        {
          OFFSET 17.7449 4.33886 11.7777
          CHANNELS 3 Zrotation Xrotation Yrotation
          JOINT LeftArm
          {
            OFFSET 0.911315 1.27913 9.80584
            CHANNELS 3 Zrotation Xrotation Yrotation
            JOINT LeftForeArm
            {
              OFFSET 28.6126 1.18197 -3.53199
              CHANNELS 3 Zrotation Xrotation Yrotation
              JOINT LeftHand
              {
                OFFSET 27.5088 0.0218783 0.327423
                CHANNELS 3 Zrotation Xrotation Yrotation
                End Site
                {
                  OFFSET 18.6038 -0.000155887 0.382096
                }
              }
            }
          }
        }
        JOINT RightShoulder
        {
          OFFSET 17.1009 2.89543 -12.2328
          CHANNELS 3 Zrotation Xrotation Yrotation
          JOINT RightArm
          {
            OFFSET 1.4228 0.178766 -10.211
            CHANNELS 3 Zrotation Xrotation Yrotation
            JOINT RightForeArm
            {
              OFFSET 28.733 1.87905 2.64907
              CHANNELS 3 Zrotation Xrotation Yrotation
              JOINT RightHand
              {
                OFFSET 27.4588 0.290562 -0.101845
                CHANNELS 3 Zrotation Xrotation Yrotation
                End Site
                {
                  OFFSET 17.8396 -0.255518 -0.000602873
                }
              }
            }
          }
        }
      }
    }
  }
  JOINT LeftUpLeg
  {
    OFFSET -5.61296 -2.22332 -10.2353
    CHANNELS 3 Zrotation Xrotation Yrotation
    JOINT LeftLeg
    {
      OFFSET 2.56703 -44.7417 -7.93097
      CHANNELS 3 Zrotation Xrotation Yrotation
      JOINT LeftFoot
      {
        OFFSET 3.16933 -46.5642 -3.96578
        CHANNELS 3 Zrotation Xrotation Yrotation
        JOINT LeftToeBase
        {
          OFFSET 0.346054 -6.02161 12.8035
          CHANNELS 3 Zrotation Xrotation Yrotation
          End Site
          {
            OFFSET 0.134235 -1.35082 5.13018
          }
        }
      }
    }
  }
  JOINT RightUpLeg
  {
    OFFSET -5.7928 -1.72406 10.6446
    CHANNELS 3 Zrotation Xrotation Yrotation
    JOINT RightLeg
    {
      OFFSET -2.57161 -44.7178 -7.85259
      CHANNELS 3 Zrotation Xrotation Yrotation
      JOINT RightFoot
      {
        OFFSET -3.10148 -46.5936 -4.03391
        CHANNELS 3 Zrotation Xrotation Yrotation
        JOINT RightToeBase
        {
          OFFSET -0.0828122 -6.13587 12.8035
          CHANNELS 3 Zrotation Xrotation Yrotation
          End Site
          {
            OFFSET -0.131328 -1.35082 5.13018
          }
        }
      }
    }
  }
}
MOTION
Frames: 12
Frame Time: 0.03333333333333333
0.0000 93.1000 0.0000 1.8901 -70.8249 -91.3769 -70.9846 -0.1733 88.1761 95.8820 70.2936 -9.0060 0.2892 17.9310 4.6625 -142.6415 18.2074 175.9798 -143.4446 55.6872 -175.1451 -0.5939 -15.8111 -34.3396 -84.1005 45.1592 -76.0660 13.0604 11.0448 -50.6690 -0.1387 0.1359 0.2736 -2.1529 5.9963 44.2221 -61.1230 -28.0077 109.9100 21.8435 9.2513 110.8917 -0.1383 0.0539 0.3044 -50.5473 5.3223 106.1172 -1.9872 31.0556 0.8519 -0.8817 -12.0011 -1.3783 -0.6381 -2.9378 7.4915 -47.7589 -5.8815 81.0021 -1.1094 27.1588 18.1064 -5.8785 -8.5004 1.0138 -0.6364 -5.7991 -0.8303 
0.0000 93.1000 0.0000 1.0743 -71.5486 -90.9790 -70.9082 0.0360 88.2227 95.8278 70.1568 -8.3776 0.1556 18.0636 4.7435 -143.7585 18.2639 176.1591 -142.9901 55.5077 -175.7349 -0.4642 -15.8172 -33.8852 -84.9234 44.7068 -75.9664 13.0261 10.8795 -51.1392 -0.0431 0.1094 0.0682 -2.0359 6.0591 45.2150 -61.1534 -27.9459 109.6597 22.0639 8.3342 110.9892 -0.1123 0.0978 0.3756 -51.2697 5.0672 105.8967 -1.7724 30.1709 4.0194 -1.7475 -12.0875 -1.4519 -1.2245 -0.4120 4.9170 -47.2316 -5.9573 80.7289 -1.4532 28.3267 17.1821 -5.3245 -7.8917 1.2808 -0.4083 -5.8854 -2.0388 
0.0000 93.1000 0.0000 1.1590 -71.3157 -92.1195 -70.8315 0.1669 88.2515 95.0297 70.0204 -7.5658 0.2451 18.6527 4.4173 -144.0154 18.0998 176.8421 -144.8375 55.8178 -174.5779 -0.2930 -15.9851 -34.1879 -85.0501 44.6862 -75.1164 13.3436 11.0528 -51.0088 -0.2663 -0.2466 0.2495 -2.2790 6.3402 45.0986 -60.3742 -28.0353 108.8217 22.0646 8.9747 111.2700 -0.3121 0.5385 -0.1302 -50.9388 4.2459 104.8583 -2.4333 29.4884 4.1752 -1.4339 -11.2472 -0.8826 -1.2992 -1.3105 5.2057 -47.2772 -5.8095 81.7821 -1.2107 28.6068 17.0411 -6.7050 -7.6531 1.2203 0.6776 -6.7406 -2.3519 
0.0000 93.1000 0.0000 0.9866 -70.9253 -92.1256 -70.7612 -0.0987 88.0960 94.6820 70.5005 -6.3378 0.2139 18.1480 4.5789 -144.2885 18.1182 177.7503 -144.9218 55.9363 -175.1636 -0.5144 -16.3194 -34.1760 -85.0665 44.6670 -74.1980 13.2881 11.3884 -50.9065 -0.2976 -0.2827 0.2721 -2.5436 6.3041 44.7169 -60.0962 -28.0205 108.7430 22.2866 8.8385 110.5238 -0.2556 0.5922 -0.3279 -51.0846 4.0438 104.1833 -1.9059 28.2972 4.7834 -0.8145 -10.1930 -0.6042 -0.8726 -2.4811 5.6244 -46.9002 -4.8855 81.5971 -1.1545 28.2725 17.3664 -4.4623 -8.8276 0.6306 0.0381 -4.8051 -2.6945 
0.0000 93.1000 0.0000 1.0848 -70.5437 -92.4735 -70.8605 0.0780 87.9631 94.9185 70.3635 -6.7826 0.2024 18.4817 4.9112 -144.9693 18.2619 176.2308 -144.1882 55.4844 -176.7594 -0.5418 -16.0067 -34.1215 -84.9302 44.6108 -74.8931 13.1273 10.9426 -50.9881 -0.2071 0.0847 0.2228 -2.1909 6.4143 44.9247 -59.8747 -27.8853 108.9581 22.0590 9.0517 110.6755 0.2066 0.1058 -0.0839 -51.0994 4.1839 103.0416 -2.0992 27.8251 4.7978 -0.3962 -8.9008 -1.1836 0.0842 -3.6018 6.1938 -46.6038 -4.6257 82.0653 -1.0912 28.4859 16.3279 -5.7352 -8.3045 1.2477 -0.2043 -4.6883 -3.5373 
0.0000 93.1000 0.0000 2.0981 -70.2274 -91.6904 -70.9812 -0.1612 87.9959 94.0590 70.3093 -6.6662 -0.0077 18.4970 5.2055 -146.0488 18.0020 176.5998 -143.5205 55.7276 -176.9319 -0.7128 -15.8050 -34.2156 -84.4473 44.5195 -74.9531 13.0606 10.9619 -50.1182 0.0926 0.1582 -0.0324 -2.2416 6.2309 44.9148 -59.6330 -27.9331 107.9466 22.3867 8.6424 110.9869 0.2550 0.0001 0.0769 -51.3756 3.9859 102.9069 -2.1802 27.1277 5.2275 -1.0488 -9.2854 -1.1214 -1.3597 -3.1883 7.0470 -47.5082 -5.4431 81.4187 -1.2596 27.3048 16.7337 -6.3289 -8.1284 1.3054 -0.1703 -4.1792 -4.4782 
0.0000 93.1000 0.0000 3.1259 -70.2293 -90.5779 -70.9805 -0.7223 88.0906 93.1146 70.1036 -5.3464 0.2093 18.1267 5.0535 -145.9594 18.4450 177.5743 -144.6386 55.8556 -176.5750 -1.1185 -15.8704 -34.1901 -84.0387 44.3434 -74.9699 12.9425 11.0481 -49.7685 -0.0382 0.1084 0.0376 -2.7503 6.2007 44.2399 -59.3589 -29.0746 107.6411 22.5848 9.1828 110.7053 -0.3379 0.0530 -0.1419 -51.5929 3.8382 101.9481 -3.3975 27.1745 6.3703 -1.0115 -9.4846 -0.7244 -0.3539 -2.8938 6.1175 -47.3812 -4.9631 82.1497 -1.0805 26.9169 16.9725 -6.5770 -8.1014 0.6838 0.3936 -4.6963 -5.2697 
0.0000 93.1000 0.0000 2.7419 -70.4851 -90.3266 -70.9088 -0.1926 88.1901 92.9161 70.1212 -4.8178 0.9645 18.0301 4.9956 -146.0905 18.3181 177.8163 -145.1049 56.0878 -175.6656 -0.7286 -16.1344 -34.8531 -84.6203 43.7176 -74.8605 11.8608 11.6237 -49.1001 0.0179 -0.1508 0.0615 -2.4687 6.0901 43.7680 -58.9970 -28.7747 108.0514 22.7946 9.3995 110.6033 -0.1207 0.3035 -0.2344 -52.2754 4.1202 102.1082 -3.1271 26.3216 6.7523 -1.2939 -8.3727 -0.7971 0.2292 -3.2254 6.1203 -48.1615 -4.6595 82.2359 -1.2723 27.5965 17.2533 -6.8831 -7.8381 0.9939 0.4681 -5.2949 -4.1949 
0.0000 93.1000 0.0000 3.1756 -70.1886 -90.2083 -71.0304 -0.1938 88.1671 93.2831 70.4120 -6.0988 0.2547 17.9693 4.8705 -147.0878 18.1217 177.1721 -145.6790 55.8793 -176.4361 -0.7788 -16.0046 -35.0638 -85.3913 43.9082 -74.9277 11.6073 11.6328 -48.8893 -0.0430 -0.0848 0.1338 -2.4494 5.8868 45.0687 -58.8263 -28.8971 107.8454 22.9395 9.0771 110.6236 -0.3029 0.2208 -0.2259 -51.7880 4.1398 101.2675 -2.3688 25.1785 6.8912 -1.2689 -7.9229 -0.7337 -0.5697 -2.3901 6.0678 -48.3379 -5.0602 81.7900 -0.9864 27.1364 16.9676 -7.0472 -7.9111 1.0436 0.7363 -5.0797 -5.1722 
0.0000 93.1000 0.0000 3.4373 -70.0374 -90.0278 -70.9267 -0.1830 88.0060 93.9555 70.2648 -6.4431 0.3880 17.9633 4.9068 -146.1823 18.3835 176.9530 -144.4868 55.9781 -178.1677 -0.8166 -15.9807 -34.4409 -84.7931 43.9438 -74.8174 11.9885 10.1542 -48.7212 -0.1052 -0.0736 0.1456 -2.4617 5.9947 45.2115 -58.9377 -28.8667 107.3633 23.0792 8.7576 110.5033 -0.1336 0.2198 -0.2038 -52.8467 2.9796 100.7336 -1.9266 25.2764 7.9782 -0.5962 -7.9808 -0.8643 -0.6467 -2.6742 4.9170 -48.1134 -5.0117 80.8914 -1.2495 26.8071 17.1367 -7.5261 -7.7433 1.1055 -0.0994 -4.9104 -3.6731 
0.0000 93.1000 0.0000 4.3002 -70.1784 -89.2301 -70.8329 -0.1669 87.8802 93.0920 70.1639 -6.6719 0.2546 17.9927 4.7914 -146.0837 18.3759 177.5544 -144.4410 55.7503 -177.2384 -0.7812 -16.0997 -34.2815 -84.9361 44.1839 -73.8401 11.0920 9.7157 -47.8741 -0.1056 -0.1309 0.2392 -2.3759 6.3211 44.7365 -59.0765 -28.9547 106.7439 22.4166 9.1159 110.7549 -0.1148 0.2724 -0.3865 -52.6495 3.0549 100.9154 -1.5219 24.2187 7.9014 -0.9468 -8.3155 -0.8289 -1.1024 -2.4417 4.2349 -48.5614 -4.9136 80.8504 -0.8668 27.4982 17.2688 -6.7750 -7.8177 0.9065 0.1357 -4.0529 -5.1946 
0.0000 93.1000 0.0000 3.9082 -70.4843 -89.3546 -70.9141 0.6193 87.8662 93.1006 70.4949 -6.2536 -0.1571 18.0351 5.6846 -147.1075 17.9912 177.4313 -143.9555 55.9032 -176.8122 -0.0376 -15.9155 -33.9881 -85.5829 44.0401 -73.9375 9.8028 9.7368 -47.9650 0.0705 -0.7144 -0.1808 -2.1414 6.1746 45.1449 -59.1295 -29.1421 106.7699 21.9718 9.0510 110.2813 0.1728 0.9722 -0.3505 -53.3608 2.8850 100.2299 -1.7498 23.9672 7.9529 -0.1363 -8.1630 -0.7922 -0.6926 -2.0136 4.1641 -48.2833 -5.0189 81.0393 -1.3901 27.1959 17.6089 -7.0806 -7.9006 1.4067 1.5028 -3.7964 -5.3471 
